<?xml version="1.0" standalone="no"?>
<!DOCTYPE svg PUBLIC "-//W3C//DTD SVG 20010904//EN"
 "http://www.w3.org/TR/2001/REC-SVG-20010904/DTD/svg10.dtd">
<svg version="1.0" xmlns="http://www.w3.org/2000/svg"
 width="1024.000000pt" height="1024.000000pt" viewBox="0 0 1024.000000 1024.000000"
 preserveAspectRatio="xMidYMid meet">
<metadata>
Created by potrace 1.11, written by Peter Selinger 2001-2013
</metadata>
<g transform="translate(0.000000,1024.000000) scale(0.100000,-0.100000)"
fill="#000000" stroke="none">
<path d="M4929 9546 c-2 -2 -67 -7 -144 -11 -76 -3 -142 -8 -145 -10 -3 -1
-30 -6 -61 -9 -31 -4 -65 -8 -75 -10 -11 -2 -41 -7 -67 -10 -27 -4 -58 -9 -70
-12 -12 -2 -37 -6 -57 -9 -38 -6 -70 -12 -110 -20 -14 -3 -34 -7 -45 -9 -168
-33 -526 -146 -735 -233 -237 -98 -538 -259 -760 -406 -79 -52 -291 -208 -325
-239 -11 -10 -31 -27 -45 -39 -76 -64 -127 -107 -154 -132 -82 -76 -233 -227
-289 -290 -34 -38 -67 -75 -72 -81 -6 -6 -33 -38 -60 -71 -28 -33 -52 -62 -55
-65 -4 -3 -44 -57 -91 -120 -199 -267 -372 -563 -501 -854 -43 -98 -137 -340
-143 -369 -2 -9 -7 -22 -10 -27 -3 -5 -8 -18 -10 -27 -3 -10 -21 -72 -40 -138
-79 -269 -140 -613 -162 -905 -15 -198 -8 -667 12 -800 2 -14 6 -47 10 -75 29
-233 82 -497 136 -680 32 -108 121 -372 139 -410 5 -11 30 -69 56 -130 222
-521 568 -1018 994 -1430 79 -76 158 -147 196 -178 16 -12 36 -29 44 -37 9 -8
31 -26 49 -40 18 -14 38 -30 44 -36 33 -30 216 -161 320 -228 392 -255 833
-451 1272 -566 66 -18 127 -33 135 -35 109 -23 181 -37 260 -50 52 -9 106 -18
120 -20 14 -3 54 -7 90 -11 36 -3 68 -8 71 -9 27 -17 615 -26 799 -12 111 8
288 29 360 42 14 3 42 8 64 11 21 3 48 8 60 10 11 2 50 9 85 15 36 5 67 12 71
14 3 2 17 6 31 8 13 3 44 10 69 17 25 7 52 14 61 15 10 2 73 20 141 40 167 50
329 109 508 186 74 32 374 181 380 189 3 3 21 14 40 24 158 79 495 318 704
499 410 355 778 819 1016 1280 93 180 81 155 160 337 33 74 108 271 116 300 2
8 24 82 49 163 25 82 47 158 49 170 2 12 13 60 24 107 19 80 45 215 57 305 3
22 8 51 10 65 2 14 7 45 10 70 4 25 8 56 10 70 26 161 25 783 0 955 -2 17 -7
53 -11 80 -3 28 -8 64 -10 80 -4 28 -37 225 -50 290 -3 17 -23 98 -44 180
-143 560 -395 1086 -739 1545 -78 104 -225 283 -276 336 -11 12 -48 50 -81 85
-148 154 -329 316 -504 451 -77 59 -328 231 -390 267 -14 8 -67 39 -118 69
-84 48 -299 155 -422 210 -134 59 -508 191 -589 207 -9 2 -54 13 -101 25 -47
12 -94 24 -105 26 -11 2 -42 8 -70 14 -137 27 -408 66 -525 75 -85 7 -555 16
-561 11z"/>
</g>
</svg>
